<svg xmlns="http://www.w3.org/2000/svg" width="43" height="40" fill="none" viewBox="0 0 43 40">
  <g clip-path="url(#a)">
    <path fill="#025595" d="M34.795 1.996h-2.92c-1.324.001-2.398 1.021-2.4 2.28v2.433L22.781.662a2.583 2.583 0 0 0-3.454 0L1.95 16.361c-.788.71-1.036 1.808-.627 2.764.37.93 1.307 1.543 2.353 1.54h.533v17.001c.013 1.3 1.131 2.344 2.499 2.334h28.69c1.369.01 2.486-1.034 2.5-2.334V20.664h.533c1.046.004 1.984-.61 2.352-1.54.41-.955.162-2.052-.626-2.763l-2.961-2.676v-9.41c-.002-1.258-1.076-2.278-2.4-2.28Zm-3.916 2.28c0-.523.447-.946.997-.947h2.92c.55 0 .995.424.996.947v8.14l-4.913-4.438V4.276Zm8.6 14.355a1.12 1.12 0 0 1-1.048.7h-1.235c-.388 0-.702.299-.702.667v17.668c-.013.563-.502 1.01-1.095 1H6.708c-.593.01-1.082-.437-1.095-1V19.998c0-.369-.314-.667-.702-.667H3.676a1.121 1.121 0 0 1-1.049-.7 1.13 1.13 0 0 1 .29-1.304l17.38-15.704a1.119 1.119 0 0 1 1.515 0L39.19 17.325c.374.335.489.856.29 1.306Z"/>
    <path fill="#025595" fill-rule="evenodd" d="M9.299 24.708c0 5.896 5.05 10.693 11.255 10.693 6.206 0 11.255-4.797 11.255-10.693 0-.352-.017-.7-.052-1.043-.04-.4-.414-.692-.838-.655-.422.039-.73.395-.69.796.03.297.045.598.045.902 0 5.092-4.36 9.235-9.72 9.235s-9.72-4.143-9.72-9.235c0-5.091 4.36-9.234 9.72-9.234 1.863 0 3.676.504 5.242 1.46a.792.792 0 0 0 1.06-.22.708.708 0 0 0-.23-1.008 11.652 11.652 0 0 0-6.072-1.69c-6.206 0-11.255 4.797-11.255 10.692Zm11.992 2.216a.781.781 0 0 0 .542.214.79.79 0 0 0 .543-.213l11.256-10.693c.3-.284.3-.746 0-1.03a.797.797 0 0 0-1.086 0L21.834 25.377l-4.062-3.86a.796.796 0 0 0-1.086 0c-.3.285-.3.747 0 1.032l4.605 4.374Z" clip-rule="evenodd"/>
  </g>
  <defs>
    <clipPath id="a">
      <path fill="#fff" d="M0 0h42.105v40H0z"/>
    </clipPath>
  </defs>
</svg>
