<svg xmlns="http://www.w3.org/2000/svg" width="43" height="40" fill="none" viewBox="0 0 43 40">
  <g clip-path="url(#a)">
    <path fill="#025595" d="M35.322 1.996h-2.92c-1.325.001-2.399 1.021-2.4 2.28v2.433L23.308.662a2.583 2.583 0 0 0-3.454 0L2.477 16.361c-.788.71-1.037 1.808-.627 2.764.369.93 1.307 1.543 2.353 1.54h.533v17.001c.013 1.3 1.13 2.344 2.498 2.334h28.692c1.367.01 2.485-1.034 2.498-2.334V20.664h.533c1.046.004 1.984-.61 2.353-1.54.41-.955.161-2.052-.627-2.763l-2.96-2.676v-9.41c-.002-1.258-1.076-2.278-2.401-2.28Zm-3.916 2.28c0-.523.446-.946.996-.947h2.92c.55 0 .996.424.996.947v8.14l-4.912-4.438V4.276Zm8.6 14.355c-.161.418-.58.698-1.049.7h-1.235c-.388 0-.702.299-.702.667v17.668c-.012.563-.502 1.01-1.095 1H7.235c-.593.01-1.083-.437-1.095-1V19.998c0-.369-.315-.667-.702-.667H4.202a1.121 1.121 0 0 1-1.048-.7 1.13 1.13 0 0 1 .29-1.304l17.38-15.704a1.119 1.119 0 0 1 1.514 0l17.379 15.702c.373.335.488.856.289 1.306Z"/>
    <path fill="#025595" d="M11.052 23.998c-.003 3.682 2.126 7.067 5.54 8.81 3.415 1.742 7.561 1.56 10.791-.475l4.642 4.41a2.178 2.178 0 0 0 2.03.517c.725-.185 1.292-.723 1.486-1.412a1.929 1.929 0 0 0-.544-1.929l-4.644-4.407c2.491-3.569 2.315-8.249-.439-11.639-2.754-3.39-7.474-4.738-11.74-3.353-4.265 1.385-7.128 5.196-7.122 9.478Zm22.956 10.868c.133.123.208.29.208.467a.635.635 0 0 1-.208.466.728.728 0 0 1-.987 0l-4.515-4.288c.35-.291.68-.605.987-.938l4.515 4.293Zm-3.304-10.868c0 4.787-4.085 8.668-9.124 8.668-5.039 0-9.124-3.88-9.124-8.668 0-4.787 4.085-8.668 9.124-8.668 5.036.006 9.118 3.883 9.124 8.668Z"/>
    <path fill="#025595" fill-rule="evenodd" d="M18.443 17.297c-2.784 1.18-4.58 3.804-4.583 6.701 0 .368.314.667.702.667.387 0 .701-.299.701-.667.004-2.37 1.473-4.518 3.752-5.484a.671.671 0 0 0 .424-.54.653.653 0 0 0-.289-.616.733.733 0 0 0-.707-.061Z" clip-rule="evenodd"/>
    <path fill="#025595" d="M21.58 17.997c.388 0 .702-.298.702-.666 0-.368-.314-.667-.702-.667-.388 0-.702.299-.702.667 0 .368.314.666.702.666Z"/>
  </g>
  <defs>
    <clipPath id="a">
      <path fill="#fff" d="M.527 0h42.105v40H.527z"/>
    </clipPath>
  </defs>
</svg>
