<svg xmlns="http://www.w3.org/2000/svg" width="49" height="48" fill="none" viewBox="0 0 49 48">
  <rect width="48" height="48" x=".668" fill="#025595" rx="24"/>
  <path fill="#fff" d="M27.819 20.4a5.83 5.83 0 0 0-5.85 5.82v5.88a.9.9 0 0 0 .9.9h2.1a.9.9 0 0 0 .9-.9v-5.88a1.94 1.94 0 0 1 2.15-1.93 2 2 0 0 1 1.75 2v5.81a.9.9 0 0 0 .9.9h2.1a.9.9 0 0 0 .9-.9v-5.88a5.832 5.832 0 0 0-5.85-5.82Zm-8.551.9h-2.7a.9.9 0 0 0-.9.9v9.9a.9.9 0 0 0 .9.9h2.7a.9.9 0 0 0 .9-.9v-9.9a.9.9 0 0 0-.9-.9Zm-1.349-1.8a2.25 2.25 0 1 0 0-4.5 2.25 2.25 0 0 0 0 4.5Z"/>
</svg>
