<svg xmlns="http://www.w3.org/2000/svg" width="42" height="40" fill="none" viewBox="0 0 42 40">
  <path fill="#fff" d="M35.483 1.996h-3.077c-1.396.001-2.528 1.021-2.53 2.28v2.433L22.821.662c-1.016-.883-2.624-.883-3.64 0L.866 16.361c-.83.71-1.092 1.808-.66 2.764.388.93 1.377 1.543 2.48 1.54h.561v17.001c.014 1.3 1.192 2.344 2.634 2.334h30.238c1.442.01 2.62-1.034 2.634-2.334V20.664h.562c1.102.004 2.09-.61 2.48-1.54.431-.955.17-2.052-.661-2.763l-3.12-2.676v-9.41c-.003-1.258-1.134-2.278-2.53-2.28Zm-4.127 2.28c0-.523.47-.946 1.05-.947h3.077c.58 0 1.05.424 1.05.947v8.14l-5.177-4.438V4.276ZM40.42 18.63c-.17.418-.61.698-1.105.7h-1.302c-.409 0-.74.299-.74.667v17.668c-.013.563-.529 1.01-1.154 1H5.88c-.624.01-1.14-.437-1.153-1V19.998c0-.369-.332-.667-.74-.667H2.685c-.494-.002-.935-.282-1.105-.7-.21-.45-.088-.97.305-1.304L20.202 1.623a1.226 1.226 0 0 1 1.597 0l18.316 15.702c.394.335.515.856.305 1.306Z"/>
  <path fill="#fff" d="M28.795 20.805a2.32 2.32 0 0 0-1.2.328c-.295-.756-1.096-1.3-2.035-1.3a2.32 2.32 0 0 0-1.2.328c-.295-.756-1.096-1.3-2.036-1.3-.392 0-.76.095-1.078.26v-3.177c0-1.072-.967-1.944-2.157-1.944s-2.157.872-2.157 1.944V27.31l-2.964-1.337a3.544 3.544 0 0 0-1.447-.307c-1.136 0-2.06.833-2.06 1.863 0 .496.215.962.604 1.313l6.974 6.285c1.575 1.422 3.673 2.204 5.903 2.204 3.865 0 7.01-2.835 7.01-6.319V22.75c0-1.072-.967-1.944-2.157-1.944Zm1.079 10.206c0 2.949-2.662 5.347-5.933 5.347-1.942 0-3.767-.682-5.139-1.92l-6.974-6.285a.838.838 0 0 1-.288-.631c0-.488.44-.885.981-.885.334 0 .666.071.964.205l3.746 1.688a.592.592 0 0 0 .524-.022.478.478 0 0 0 .256-.413v-12.15c0-.537.483-.973 1.078-.973.595 0 1.079.437 1.079.972v9.235c0 .268.241.486.539.486.297 0 .539-.218.539-.486v-4.374c0-.536.483-.973 1.078-.973.596 0 1.079.437 1.079.973v4.374c0 .268.242.486.54.486.297 0 .538-.218.538-.486v-3.402c0-.536.483-.972 1.079-.972.595 0 1.078.436 1.078.972v3.402c0 .268.242.486.54.486.297 0 .539-.218.539-.486v-2.43c0-.536.483-.972 1.078-.972.595 0 1.079.436 1.079.972v8.262Z"/>
</svg>
