<svg xmlns="http://www.w3.org/2000/svg" width="48" height="48" fill="none" viewBox="0 0 48 48">
  <g clip-path="url(#a)">
    <path fill="#49454F" d="m31.6 33-6.3-6.3a6.096 6.096 0 0 1-3.8 1.3c-1.817 0-3.354-.63-4.613-1.887C15.63 24.854 15 23.317 15 21.5c0-1.817.63-3.354 1.887-4.613C18.146 15.63 19.683 15 21.5 15c1.817 0 3.354.63 4.613 1.887C27.37 18.146 28 19.683 28 21.5a6.096 6.096 0 0 1-1.3 3.8l6.3 6.3-1.4 1.4Zm-10.1-7c1.25 0 2.313-.438 3.188-1.313S26 22.75 26 21.5c0-1.25-.438-2.313-1.313-3.188S22.75 17 21.5 17c-1.25 0-2.313.438-3.188 1.313S17 20.25 17 21.5c0 1.25.438 2.313 1.313 3.188S20.25 26 21.5 26Z"/>
  </g>
  <defs>
    <clipPath id="a">
      <rect width="40" height="40" x="4" y="4" fill="#fff" rx="20"/>
    </clipPath>
  </defs>
</svg>
