<svg xmlns="http://www.w3.org/2000/svg" width="69" height="56" fill="none" viewBox="0 0 69 56">
  <path fill="#025595" d="M56.143 3.35A11.253 11.253 0 0 0 48.857.047a11.236 11.236 0 0 0-7.633 2.38A11.255 11.255 0 0 0 34.292.033c-2.511 0-4.95.84-6.933 2.39a11.233 11.233 0 0 0-15.407 1.398 11.403 11.403 0 0 0-2.838 7.873 11.394 11.394 0 0 0 3.294 7.69l6.938 6.984.017.016.011.012.022.021a11.503 11.503 0 0 0 .659.605 11.246 11.246 0 0 0 7.063 2.692 11.24 11.24 0 0 0 7.168-2.394 11.236 11.236 0 0 0 7.634 2.38 11.253 11.253 0 0 0 7.285-3.305l6.938-6.983a11.408 11.408 0 0 0 3.3-8.03c0-3.012-1.187-5.9-3.3-8.031Zm-21.854-.359a8.297 8.297 0 0 1 4.634 1.412 8.378 8.378 0 0 1 3.073 3.767 8.442 8.442 0 0 1 .474 4.85 8.408 8.408 0 0 1-2.284 4.297l-5.897 5.936-5.897-5.936a8.407 8.407 0 0 1-2.283-4.297 8.441 8.441 0 0 1 .474-4.85 8.378 8.378 0 0 1 3.072-3.767 8.298 8.298 0 0 1 4.634-1.412ZM19.012 18.365a8.386 8.386 0 0 1 .63-3.214 8.341 8.341 0 0 1 1.813-2.722l1.57-1.58c-.077 1.58.176 3.157.742 4.632a11.339 11.339 0 0 0 2.544 3.931l5.776 5.814a8.264 8.264 0 0 1-8.608.566 8.33 8.33 0 0 1-3.266-3.085 8.404 8.404 0 0 1-1.201-4.343Zm-4.523-1.076a8.419 8.419 0 0 1-2.435-5.573 8.428 8.428 0 0 1 1.948-5.764 8.297 8.297 0 0 1 11.18-1.465l-5.809 5.847a11.287 11.287 0 0 0-2.451 3.682 11.347 11.347 0 0 0-.841 4.875l-1.592-1.602Zm26.738 9.47a8.24 8.24 0 0 1-4.763-1.505l5.805-5.842a11.337 11.337 0 0 0 2.543-3.931c.566-1.475.82-3.053.743-4.632l1.57 1.58a8.41 8.41 0 0 1 2.282 4.298 8.443 8.443 0 0 1-.475 4.85 8.383 8.383 0 0 1-3.071 3.767 8.302 8.302 0 0 1-4.633 1.415Zm12.835-9.442-1.564 1.574a11.346 11.346 0 0 0-.841-4.875 11.288 11.288 0 0 0-2.451-3.682L43.4 4.492a8.297 8.297 0 0 1 11.16 1.503 8.429 8.429 0 0 1 1.935 5.759 8.42 8.42 0 0 1-2.434 5.563Z"/>
  <path fill="#222" d="M7.996 37.449c-1.975 0-3.452.45-4.43 1.352-.958.881-1.438 2.166-1.438 3.854v2.818h9.607v1.841H2.128v8.542H0v-13.23c0-2.205.69-3.931 2.07-5.177 1.381-1.266 3.328-1.899 5.84-1.899 2.435 0 4.39.528 5.867 1.582l-.776 1.755c-1.304-.959-2.973-1.438-5.005-1.438ZM21.3 56c-1.361 0-2.416-.383-3.164-1.15-.728-.767-1.093-1.831-1.093-3.193V34.515h2.043v16.97c0 .9.21 1.591.632 2.07.422.46 1.055.69 1.899.69.537 0 .997-.085 1.38-.258l.144 1.697a5.465 5.465 0 0 1-1.84.316Zm10.522 0c-1.457 0-2.77-.326-3.94-.978a7.342 7.342 0 0 1-2.761-2.76c-.671-1.17-1.007-2.494-1.007-3.97 0-1.477.335-2.8 1.007-3.97a7.134 7.134 0 0 1 2.76-2.732c1.17-.652 2.484-.978 3.941-.978 1.457 0 2.771.326 3.94.978a6.935 6.935 0 0 1 2.733 2.733c.671 1.17 1.007 2.492 1.007 3.969 0 1.476-.336 2.8-1.007 3.97a7.134 7.134 0 0 1-2.732 2.76c-1.17.652-2.483.978-3.94.978Zm0-1.812c1.074 0 2.033-.24 2.876-.719a5.182 5.182 0 0 0 2.014-2.1c.48-.9.719-1.926.719-3.077 0-1.15-.24-2.176-.72-3.078a4.993 4.993 0 0 0-2.013-2.07c-.843-.499-1.802-.748-2.876-.748-1.074 0-2.042.249-2.905.748-.843.479-1.515 1.17-2.013 2.07-.48.902-.72 1.928-.72 3.078s.24 2.176.72 3.078c.498.9 1.17 1.6 2.013 2.1.863.479 1.831.718 2.905.718ZM45.627 43.69c.48-1.016 1.189-1.783 2.128-2.3.959-.519 2.138-.778 3.538-.778v1.985l-.49-.029c-1.59 0-2.837.49-3.738 1.467-.901.978-1.352 2.35-1.352 4.113v7.708h-2.042V40.727h1.956v2.963Zm23.029-2.963v15.13H66.7v-2.992a6.201 6.201 0 0 1-2.445 2.33c-.997.537-2.128.805-3.394.805-1.419 0-2.703-.326-3.854-.978a6.988 6.988 0 0 1-2.703-2.732c-.653-1.17-.978-2.502-.978-3.998 0-1.496.325-2.828.977-3.998a6.793 6.793 0 0 1 2.704-2.704c1.15-.652 2.435-.978 3.854-.978 1.227 0 2.33.26 3.308.777.997.499 1.812 1.237 2.445 2.215v-2.877h2.042Zm-7.622 13.461c1.054 0 2.004-.24 2.847-.719a5.18 5.18 0 0 0 2.014-2.1c.498-.9.748-1.926.748-3.077 0-1.15-.25-2.176-.748-3.078a4.992 4.992 0 0 0-2.014-2.07c-.843-.499-1.793-.748-2.847-.748-1.074 0-2.042.249-2.905.748-.844.479-1.515 1.17-2.014 2.07-.479.902-.719 1.928-.719 3.078s.24 2.176.72 3.078c.498.9 1.17 1.6 2.013 2.1.863.479 1.831.718 2.905.718Z"/>
</svg>
