<svg xmlns="http://www.w3.org/2000/svg" width="61" height="60" fill="none" viewBox="0 0 61 60">
  <path fill="#025595" d="M42.565 43.438h-24.96a.944.944 0 0 1-.937-.938c0-.513.425-.938.936-.938h24.96c.512 0 .937.425.937.938a.944.944 0 0 1-.936.938Z"/>
  <path fill="#025595" d="M41.318 27.475V42.5H18.79l.063-15.038c0-.762.349-1.487.96-1.962l8.737-6.8a2.472 2.472 0 0 1 3.07 0l1.672 1.3 5.53 4.3 1.534 1.2c.612.475.962 1.2.962 1.975Z" opacity=".4"/>
  <path fill="#025595" d="M31.333 36.25h-2.497a1.871 1.871 0 0 0-1.872 1.875V42.5h6.24v-4.375a1.871 1.871 0 0 0-1.871-1.875Zm-4.368-4.062h-2.497a1.253 1.253 0 0 1-1.248-1.25v-1.875c0-.688.562-1.25 1.248-1.25h2.497c.686 0 1.248.562 1.248 1.25v1.875c0 .687-.562 1.25-1.248 1.25Zm8.735 0h-2.496a1.253 1.253 0 0 1-1.248-1.25v-1.875c0-.688.562-1.25 1.248-1.25h2.497c.686 0 1.248.562 1.248 1.25v1.875c0 .687-.562 1.25-1.248 1.25Zm3.12-7.888L33.293 20h4.256c.686 0 1.248.55 1.248 1.238l.025 3.062Z"/>
  <ellipse cx="30.084" cy="30" fill="#025595" opacity=".05" rx="29.952" ry="30"/>
</svg>
