<svg  xmlns="http://www.w3.org/2000/svg" width="60" height="60" fill="none" viewBox="0 0 60 60">
  <path fill="#025595" d="M40.711 25.563c-1.31-5.775-6.34-8.375-10.758-8.375h-.013c-4.405 0-9.447 2.587-10.758 8.362-1.46 6.45 2.484 11.912 6.053 15.35a6.778 6.778 0 0 0 4.718 1.913 6.727 6.727 0 0 0 4.705-1.913c3.57-3.438 7.513-8.887 6.053-15.337Z" opacity=".4"/>
  <path fill="#025595" d="M29.952 31.825a3.935 3.935 0 0 0 3.932-3.938 3.934 3.934 0 0 0-3.932-3.937 3.934 3.934 0 0 0-3.931 3.938 3.934 3.934 0 0 0 3.931 3.937Z"/>
  <ellipse cx="29.952" cy="30" fill="#025595" opacity=".05" rx="29.952" ry="30"/>
</svg>
